<svg xmlns="http://www.w3.org/2000/svg" width="1024" height="1024" viewBox="0 0 1024 1024">
<g>
<path d="M 405.20 879.74 C404.57,878.98 386.94,854.08 366.03,824.43 L 328.01 770.50 L 342.39 756.12 L 356.78 741.73 L 392.87 769.11 C412.73,784.17 429.43,796.64 429.99,796.83 C430.66,797.05 430.64,796.19 429.92,794.34 C427.02,786.84 398.00,702.46 398.00,701.54 C398.00,700.30 426.74,671.38 427.31,672.05 C427.52,672.30 445.09,697.23 466.37,727.46 L 505.05 782.42 L 494.29 793.21 C488.37,799.14 483.23,804.00 482.85,804.00 C481.71,804.00 463.21,776.90 448.03,753.00 C440.17,740.62 433.21,729.92 432.56,729.22 C431.90,728.52 438.53,749.62 447.28,776.12 L 463.18 824.30 L 456.19 831.29 C452.15,835.34 448.63,838.07 447.85,837.77 C447.11,837.48 429.51,824.84 408.75,809.68 C387.99,794.52 371.00,782.30 371.00,782.51 C371.00,782.73 380.01,794.51 391.02,808.70 C402.04,822.89 414.92,840.06 419.67,846.85 L 428.29 859.20 L 417.32 870.17 C408.38,879.11 406.14,880.88 405.20,879.74 ZM 726.00 770.50 L 726.00 734.50 L 837.00 623.50 C898.05,562.45 947.88,512.14 947.73,511.69 C947.58,511.24 902.02,465.46 846.48,409.94 L 745.50 309.00 L 520.77 533.73 L 296.04 758.46 L 295.77 781.23 L 295.50 804.00 L 148.75 657.25 L 2.00 510.50 L 149.00 363.50 L 296.00 216.50 L 296.00 254.00 L 296.00 291.50 L 185.75 401.75 L 75.50 512.00 L 174.25 610.75 L 273.00 709.50 L 499.48 483.02 L 725.96 256.54 L 726.23 235.74 L 726.50 214.93 L 874.50 362.45 L 1022.50 509.98 L 874.25 658.24 L 726.00 806.50 L 726.00 770.50 ZM 508.69 768.40 C507.32,764.05 497.32,731.54 486.47,696.14 L 466.73 631.78 L 477.19 621.32 L 487.66 610.85 L 543.08 648.98 C573.56,669.94 598.61,687.42 598.75,687.81 C598.89,688.20 593.92,693.60 587.70,699.80 L 576.39 711.07 L 566.77 703.54 C561.48,699.39 556.78,696.00 556.31,696.00 C554.70,696.00 527.00,724.54 527.00,726.20 C527.00,727.11 528.79,732.73 530.99,738.68 C533.18,744.63 534.98,750.18 534.99,751.02 C534.99,751.85 529.64,757.88 523.09,764.41 L 511.18 776.29 L 508.69 768.40 ZM 533.48 677.80 C519.22,666.56 500.50,652.17 500.33,652.33 C500.17,652.50 513.64,690.49 516.34,697.45 C516.99,699.15 518.34,698.15 526.74,689.75 L 536.39 680.10 L 533.48 677.80 ZM 603.66 676.75 C596.94,667.79 529.00,570.85 529.00,570.21 C529.00,569.80 533.88,564.60 539.84,558.66 L 550.69 547.85 L 566.90 570.92 C575.82,583.62 583.35,594.00 583.62,594.00 C583.90,594.00 583.84,592.09 583.49,589.75 C583.15,587.41 581.59,571.10 580.03,553.50 L 577.19 521.50 L 591.34 507.24 C599.13,499.40 605.62,493.36 605.77,493.82 C605.93,494.28 606.86,512.50 607.86,534.32 C608.85,556.14 609.85,574.14 610.08,574.33 C610.31,574.51 626.84,581.34 646.80,589.51 L 683.11 604.37 L 670.82 616.68 C664.06,623.46 657.99,629.00 657.34,629.00 C656.68,629.00 646.14,624.50 633.90,619.00 C621.67,613.50 611.06,609.00 610.33,609.00 C609.31,609.00 609.00,611.50 609.00,619.84 L 609.00 630.68 L 618.50 644.27 C623.72,651.74 628.00,658.23 628.00,658.69 C628.00,659.69 607.78,680.00 606.78,680.00 C606.41,680.00 605.00,678.54 603.66,676.75 ZM 228.69 607.00 C205.18,574.00 185.66,546.28 185.32,545.40 C184.59,543.49 214.80,512.71 216.69,513.43 C217.35,513.69 235.90,527.42 257.93,543.95 C279.95,560.48 298.14,574.00 298.34,574.00 C298.53,574.00 290.27,550.04 279.97,520.76 L 261.24 467.51 L 276.75 451.26 C285.27,442.32 292.75,435.03 293.37,435.06 C293.99,435.09 313.93,462.43 337.67,495.81 L 380.84 556.50 L 368.46 568.96 C361.65,575.81 355.90,581.21 355.68,580.96 C352.74,577.56 327.85,540.75 315.61,521.69 C306.87,508.08 299.61,497.07 299.48,497.22 C299.34,497.38 307.17,521.23 316.87,550.23 L 334.50 602.95 L 326.51 610.99 C322.11,615.41 318.05,618.85 317.48,618.63 C316.91,618.41 297.61,604.66 274.60,588.06 C251.60,571.47 232.65,558.03 232.49,558.20 C232.34,558.36 242.12,571.10 254.23,586.50 C272.07,609.19 291.80,635.66 295.27,641.57 C295.61,642.16 290.39,648.12 283.67,654.83 L 271.45 667.02 L 228.69 607.00 ZM 650.48 544.25 C629.68,514.69 612.20,489.91 611.65,489.18 C610.89,488.19 618.31,480.20 642.07,456.43 C659.35,439.15 673.72,425.02 673.99,425.04 C674.27,425.06 675.65,426.75 677.05,428.79 C678.45,430.83 681.59,435.32 684.02,438.78 L 688.43 445.05 L 668.22 465.28 C657.10,476.41 648.00,485.88 648.00,486.32 C648.00,487.05 661.07,506.14 663.17,508.47 C663.70,509.06 670.76,502.73 681.32,492.18 L 698.61 474.92 L 705.05 484.17 C708.60,489.26 711.67,493.83 711.87,494.33 C712.08,494.83 704.53,502.96 695.10,512.40 L 677.95 529.58 L 687.20 542.80 L 696.46 556.03 L 717.02 535.48 L 737.58 514.94 L 744.72 525.30 L 751.86 535.65 L 720.67 566.83 C703.52,583.97 689.22,598.00 688.90,598.00 C688.57,598.00 671.29,573.81 650.48,544.25 ZM 362.68 469.33 L 337.86 389.67 L 349.16 378.34 C355.38,372.10 360.85,367.00 361.33,367.00 C362.09,367.00 482.07,448.04 484.47,450.17 C485.40,451.01 461.46,476.00 459.73,476.00 C459.28,476.00 454.17,472.33 448.37,467.85 L 437.82 459.71 L 421.41 476.09 C412.38,485.10 405.00,493.01 405.00,493.65 C405.00,494.30 407.27,501.03 410.04,508.61 L 415.08 522.39 L 401.80 535.70 C394.50,543.01 388.30,549.00 388.01,548.99 C387.73,548.98 376.33,513.14 362.68,469.33 ZM 414.73 442.69 C414.43,441.79 375.71,411.95 375.34,412.33 C375.15,412.52 389.14,451.49 392.96,461.44 L 394.09 464.37 L 404.55 453.95 C410.30,448.22 414.88,443.15 414.73,442.69 ZM 751.93 506.63 C746.64,505.21 740.01,501.46 735.00,497.08 L 731.50 494.01 L 743.00 483.08 L 754.50 472.15 L 757.50 475.02 C763.75,480.98 770.46,481.56 777.61,476.75 C787.76,469.92 791.89,458.42 787.02,450.54 C782.17,442.68 776.33,442.36 760.31,449.03 C741.21,456.99 727.29,459.02 716.64,455.39 C710.63,453.34 702.28,445.75 698.46,438.84 C695.71,433.87 695.50,432.76 695.50,423.00 C695.50,413.90 695.86,411.66 698.15,406.22 C707.02,385.15 723.45,370.18 741.25,366.94 C751.29,365.12 763.50,368.73 771.97,376.03 L 775.45 379.02 L 764.59 389.91 L 753.74 400.79 L 749.17 397.90 C742.04,393.37 735.89,394.25 729.81,400.66 C726.22,404.45 723.05,411.66 723.02,416.10 C723.00,420.50 726.46,425.97 730.52,427.92 C734.14,429.66 739.49,428.35 754.00,422.19 C765.82,417.17 778.25,414.52 785.82,415.41 C800.32,417.11 812.21,427.59 816.54,442.47 C820.98,457.76 813.56,476.74 797.07,492.25 C782.75,505.73 767.08,510.72 751.93,506.63 ZM 484.17 430.58 C478.07,428.59 472.52,424.47 468.43,418.91 C463.25,411.85 461.67,406.30 462.20,397.04 C462.94,384.39 469.51,372.35 484.50,356.20 L 491.27 348.91 L 488.33 345.27 C481.29,336.57 475.80,335.36 470.35,341.32 C467.70,344.21 467.00,345.82 467.00,349.03 C467.00,351.27 467.65,354.35 468.44,355.88 C469.87,358.65 469.86,358.67 458.07,370.43 L 446.26 382.21 L 443.65 378.79 C434.78,367.16 436.38,348.17 447.62,331.72 C463.29,308.79 488.09,301.37 505.26,314.47 C507.93,316.51 515.49,325.81 524.53,338.16 C544.68,365.71 549.18,371.17 553.93,373.84 C556.17,375.10 558.00,376.37 558.00,376.67 C558.00,377.81 536.70,400.00 535.63,399.98 C535.01,399.97 533.38,399.08 532.00,398.00 C530.62,396.92 529.22,396.03 528.89,396.02 C528.55,396.01 527.98,398.49 527.62,401.54 C525.72,417.76 511.74,430.75 495.26,431.63 C491.18,431.84 486.79,431.43 484.17,430.58 ZM 506.07 398.29 C510.10,394.90 512.95,388.75 512.98,383.36 C512.99,380.18 512.08,377.85 509.00,373.23 C503.01,364.27 502.57,364.05 498.44,368.06 C488.49,377.70 487.38,391.10 495.94,398.30 C499.98,401.70 502.02,401.70 506.07,398.29 ZM 525.41 305.80 C501.81,272.69 482.37,245.11 482.22,244.51 C482.06,243.90 490.39,235.07 500.72,224.88 C525.61,200.33 533.39,196.00 552.66,196.00 C576.81,196.00 601.82,214.40 615.87,242.51 C628.65,268.08 627.63,297.48 613.21,319.18 C609.58,324.65 570.59,366.00 569.07,366.00 C568.66,366.00 549.02,338.91 525.41,305.80 ZM 591.64 301.73 C600.15,284.97 592.10,261.99 569.72,239.15 C562.61,231.90 557.54,228.64 550.73,226.94 C543.21,225.07 538.12,226.98 529.83,234.80 C526.07,238.34 523.00,241.66 523.00,242.17 C523.00,242.68 535.22,260.26 550.16,281.24 L 577.31 319.38 L 583.15 313.17 C586.36,309.76 590.18,304.61 591.64,301.73 Z" fill="rgba(0,0,0,1)"/>
</g>
</svg>